<?xml version="1.0" encoding="UTF-8" standalone="no"?>
<!-- Created with Inkscape (http://www.inkscape.org/) -->

<svg
   version="1.1"
   id="svg1"
   width="961.20837"
   height="218.29202"
   viewBox="0 0 961.20837 218.29204"
   xmlns="http://www.w3.org/2000/svg"
   xmlns:svg="http://www.w3.org/2000/svg">
  <defs
     id="defs1" />
  <g
     id="g1"
     transform="translate(-100.17133,-41.28317)">
    <g
       id="g6"
       transform="translate(-366.13157,-443.09143)">
      <path
         style="fill:#ff3534;fill-opacity:1"
         d="m 500.27725,696.49995 c 0.24721,-2.29167 0.87781,-6.28957 1.40134,-8.88422 0.99587,-4.9357 1.95734,-10.85954 4.64448,-28.61578 3.36604,-22.24236 4.9926,-32.72174 5.32905,-34.33333 0.19138,-0.91667 0.93651,-5.56667 1.65586,-10.33333 0.71935,-4.76667 1.61802,-10.46667 1.99705,-12.66667 0.37904,-2.2 0.99368,-6.55 1.36588,-9.66666 0.81617,-6.83445 1.93478,-12.03633 2.83136,-13.16667 l 0.66099,-0.83333 h 19.27263 19.27262 l 0.42823,1.11594 c 0.23553,0.61377 0.0465,3.23877 -0.41999,5.83333 -0.83667,4.65309 -2.50295,15.17467 -5.70929,36.05072 -0.90106,5.86667 -1.9168,12.16667 -2.25719,14 -0.3404,1.83334 -1.13623,6.48333 -1.7685,10.33333 -0.63227,3.85 -1.38817,7.45 -1.67978,8 -0.64849,1.22312 -46.50164,47.33333 -47.06944,47.33333 -0.22263,0 -0.20251,-1.875 0.0447,-4.16666 z m 48.45613,-1.77799 -0.93328,-0.59091 1.26662,-1.56555 c 0.69664,-0.86105 9.45249,-9.66555 19.45744,-19.56555 l 18.19083,-18 1.80917,-0.3638 c 0.99505,-0.20009 20.10917,-0.35009 42.47584,-0.33333 l 40.66667,0.0305 -0.0739,2.66667 c -0.12909,4.6593 -4.67481,34.23228 -5.66172,36.83333 l -0.56915,1.5 -57.84763,-0.0102 -57.84762,-0.0102 z m 44.34263,-77.26568 c -0.3658,-0.59188 -0.086,-2.81379 1.90427,-15.12299 0.53358,-3.3 1.29557,-8.25 1.69332,-11 0.9949,-6.87874 2.04273,-11.50915 2.82867,-12.5 l 0.66099,-0.83333 h 31.60596 31.60596 l 0.37453,0.97601 c 0.373,0.97201 -4.61747,37.4473 -5.20366,38.03349 -0.16935,0.16935 -14.88503,0.47567 -32.7015,0.68071 l -32.39359,0.37279 z M 466.41275,540.79512 c -0.39159,-0.6336 0.27517,-5.57074 1.81801,-13.46183 0.60936,-3.11666 2.01982,-10.45705 3.13435,-16.31197 1.11453,-5.85491 2.38832,-10.87532 2.83065,-11.15645 0.44233,-0.28114 52.47924,-0.51575 115.63757,-0.52137 l 114.83334,-0.0102 v 0.82429 c 0,0.78235 -10.86159,11.73414 -31.75994,32.02371 l -9.4266,9.15199 h -98.36738 c -54.10207,0 -98.51707,-0.24218 -98.7,-0.53817 z"
         id="path8" />
      <path
         style="fill:#020202"
         d="m 946.66667,701.02879 c -10.58726,-2.21749 -19.87684,-5.90499 -28,-11.11459 -5.54666,-3.55723 -13.30661,-10.65464 -16.66667,-15.24368 -1.65,-2.2535 -3.34247,-4.47231 -3.76105,-4.93069 -0.79926,-0.87526 -4.75207,-8.4248 -6.49584,-12.40655 -7.53295,-17.20079 -7.43261,-46.19101 0.21852,-63.13578 4.92817,-10.9143 8.30657,-15.86171 16.3377,-23.92531 11.73925,-11.78671 21.37428,-16.74992 40.70067,-20.96579 3.47511,-0.75806 22.55963,-0.75263 26,0.007 12.35392,2.72917 11.94386,2.59568 20.66667,6.72769 16.46753,7.80071 29.41773,23.28649 35.73153,42.72769 1.0305,3.17307 2.4976,9.63403 3.2601,14.35769 l 1.3865,8.58847 -0.1891,7.97564 -0.189,7.97564 -54.5854,0.17058 -54.58537,0.17058 0.44589,3.36125 c 0.91124,6.86931 7.11156,16.95965 13.60704,22.14398 3.61588,2.88599 9.3265,5.59594 15.23008,7.22737 L 961,672.1832 l 7.66667,0.0367 7.66666,0.0367 6,-1.51329 c 9.80252,-2.47236 17.66174,-6.05832 23.77047,-10.84587 l 2.4372,-1.91005 3.5268,5.17291 c 1.9398,2.84511 5.5678,8.17292 8.0622,11.83959 2.4944,3.66667 4.5356,7.0322 4.536,7.47897 7e-4,0.87669 -5.6341,5.25157 -9.7782,7.59187 -11.4534,6.46799 -18.95807,8.93814 -35.22113,11.59306 l -6,0.97948 -10,-0.0742 -10,-0.0742 z m 52,-90.79029 c 0,-0.96881 -0.63337,-3.89381 -1.40749,-6.5 -4.32822,-14.5717 -15.99609,-23.60251 -32.05031,-24.80662 l -5.5422,-0.41569 -4,0.74161 c -7.03818,1.3049 -14.154,4.73867 -18.5293,8.94141 -5.35063,5.1396 -9.98502,13.81898 -10.84657,20.31372 l -0.46257,3.48702 h 36.41922 36.41922 z m 333.66663,90.79845 c -16.3458,-3.36426 -28.1331,-9.46124 -38.6932,-20.01408 -10.2646,-10.25756 -16.2851,-21.27229 -20.054,-36.68959 l -0.9779,-4 -0.3915,-11.00247 -0.3916,-11.00248 0.7567,-5.66419 c 1.7064,-12.77312 9.3011,-30.17609 16.4182,-37.62187 0.7333,-0.7672 2.2395,-2.44058 3.347,-3.71861 4.9847,-5.75227 14.8574,-12.72006 22.2025,-15.66958 2.4478,-0.98296 4.9807,-2.06302 5.6287,-2.40016 1.1125,-0.57879 8.9597,-2.66875 14.8218,-3.94752 3.4854,-0.76031 25.2302,-0.75258 28.6667,0.0102 9.8735,2.19153 14.6034,3.40702 15.2526,3.91957 0.4111,0.32452 1.9474,0.97338 3.414,1.44191 8.2807,2.64529 20.6886,11.76241 27.6324,20.30385 7.3383,9.02673 11.8329,18.03344 15.074,30.20672 l 1.7247,6.47798 0.3734,10 0.3735,10 -0.7393,5.48427 c -0.6826,5.06417 -3.5992,16.48664 -4.8106,18.84057 -0.2855,0.55467 -1.701,3.40849 -3.1457,6.34182 -3.2498,6.59882 -5.1564,9.46147 -10.0113,15.03131 -11.1428,12.78371 -24.0113,20.02514 -42.0249,23.6485 l -8.2205,1.65352 -9.4462,-0.0602 -9.4461,-0.0602 z m 28.4472,-34.11284 c 11.8218,-3.7345 19.7625,-11.99966 24.2227,-25.2123 l 1.7851,-5.28814 0.3502,-7.37853 0.3503,-7.37852 -1.0798,-6.17905 c -0.5939,-3.39848 -1.3474,-6.69848 -1.6744,-7.33334 -0.327,-0.63485 -1.5595,-3.15686 -2.739,-5.60446 -3.886,-8.06402 -11.0989,-14.61781 -19.6623,-17.86554 l -4,-1.51704 -6.5623,-0.34242 -6.5624,-0.34241 -3.7709,0.82022 c -2.0741,0.45112 -5.871,1.81978 -8.4377,3.04147 l -4.6667,2.22125 -3.6767,3.55066 c -6.1174,5.90775 -9.6135,12.22627 -11.7656,21.26435 l -1.1794,4.95298 v 6.66666 6.66667 l 1.1717,5.53021 c 2.472,11.66715 8.9544,21.29803 18.0257,26.7806 1.4153,0.85545 4.7153,2.23607 7.3333,3.06807 l 4.7599,1.51271 6.1323,0.0542 6.1322,0.0542 z m -559.13677,31.57584 c -0.17294,-0.45834 -0.38852,-37.73333 -0.47908,-82.83333 L 801,533.66663 771.5,533.49303 742,533.31942 v -18.65973 -18.65973 h 81 81 v 18.66667 18.66666 h -28.61214 c -15.73668,0 -29.08668,0.1821 -29.66667,0.40466 l -1.05452,0.40466 v 82.59534 82.59533 h -21.35426 -21.35426 z m 257.02297,-72.83333 v -73.66666 h 19 19 v 73.66666 73.66666 h -19 -19 z m 71.3333,-28 V 495.99996 h 19 19 v 60.33333 60.33333 l 0.8333,-0.0312 c 0.4584,-0.0172 3.0834,-2.75219 5.8334,-6.07784 2.75,-3.32565 5.7703,-6.8366 6.7118,-7.80213 0.9416,-0.96552 5.7251,-6.5555 10.6301,-12.42216 4.9049,-5.86667 9.4589,-11.26667 10.1199,-12 3.042,-3.37502 6.3176,-7.21526 13.9622,-16.36899 l 8.2426,-9.86976 23.5332,-0.0473 23.5331,-0.0473 -0.5331,0.93457 c -0.4761,0.83449 -11.8358,13.99598 -22.2095,25.73209 -2.1067,2.38334 -7.351,8.38334 -11.6539,13.33334 -4.303,4.94999 -8.914,10.20177 -10.2467,11.6706 -1.3327,1.46884 -4.7819,5.43925 -7.665,8.82315 l -5.2419,6.15254 0.367,0.84352 c 0.292,0.67115 14.7079,20.15918 16.902,22.84883 0.3015,0.36959 2.4982,3.30455 4.8815,6.52214 2.3833,3.21759 6.5833,8.83525 9.3333,12.48368 2.75,3.64843 7.25,9.64342 10,13.3222 8.7791,11.74402 15.1976,20.2815 16.619,22.10543 0.7596,0.97466 1.381,1.94966 1.381,2.16667 0,0.21701 -10.7298,0.39456 -23.844,0.39456 h -23.844 l -2.1402,-3.16667 c -4.3498,-6.43591 -8.1117,-11.85315 -8.7096,-12.54199 -0.3383,-0.38976 -0.9538,-1.34136 -1.3676,-2.11468 -0.4139,-0.77331 -1.1295,-1.80645 -1.5902,-2.29587 -0.4607,-0.48941 -2.4578,-3.2878 -4.438,-6.21865 -10.8547,-16.06595 -18.0978,-26.56117 -19.988,-28.96259 l -1.2859,-1.63378 -5.6179,5.96712 c -3.0898,3.28191 -7.1681,7.69529 -9.0629,9.8075 l -3.445,3.8404 v 18.6596 18.65961 h -19 -19 z m -59.9204,-69.03772 c -7.0287,-2.49559 -12.2933,-8.08424 -14.3657,-15.24994 -3.1507,-10.89429 1.5692,-21.55743 11.9128,-26.9127 l 4.04,-2.09166 6,0.0436 6,0.0436 4,2.05035 c 4.8051,2.46307 8.2108,5.88595 10.7444,10.79863 l 1.8794,3.64421 8e-4,6.02245 7e-4,6.02246 -2.1164,4.08912 -2.1165,4.08912 -3.5296,3.09662 -3.5295,3.09662 -4.2369,1.31426 c -5.2378,1.62473 -9.9995,1.60632 -14.6835,-0.0568 z"
         id="path7" />
    </g>
  </g>
</svg>
